<?xml version="1.0" encoding="UTF-8" standalone="no"?>
<!-- Created with Inkscape (http://www.inkscape.org/) -->

<svg
   xmlns:dc="http://purl.org/dc/elements/1.1/"
   xmlns:cc="http://creativecommons.org/ns#"
   xmlns:rdf="http://www.w3.org/1999/02/22-rdf-syntax-ns#"
   xmlns:svg="http://www.w3.org/2000/svg"
   xmlns="http://www.w3.org/2000/svg"
   xmlns:sodipodi="http://sodipodi.sourceforge.net/DTD/sodipodi-0.dtd"
   xmlns:inkscape="http://www.inkscape.org/namespaces/inkscape"
   version="1.1"
   id="svg3718"
   xml:space="preserve"
   width="793.70081"
   height="1122.5197"
   viewBox="0 0 793.70081 1122.5197"
   sodipodi:docname="funkyfreshdj.svg"
   inkscape:version="0.92.2 (5c3e80d, 2017-08-06)"><metadata
     id="metadata3724"><rdf:RDF><cc:Work
         rdf:about=""><dc:format>image/svg+xml</dc:format><dc:type
           rdf:resource="http://purl.org/dc/dcmitype/StillImage" /><dc:title></dc:title></cc:Work></rdf:RDF></metadata><defs
     id="defs3722" /><sodipodi:namedview
     pagecolor="#ffffff"
     bordercolor="#666666"
     borderopacity="1"
     objecttolerance="10"
     gridtolerance="10"
     guidetolerance="10"
     inkscape:pageopacity="0"
     inkscape:pageshadow="2"
     inkscape:window-width="1920"
     inkscape:window-height="1025"
     id="namedview3720"
     showgrid="false"
     inkscape:zoom="0.75187993"
     inkscape:cx="396.8504"
     inkscape:cy="561.25983"
     inkscape:window-x="0"
     inkscape:window-y="27"
     inkscape:window-maximized="1"
     inkscape:current-layer="g3726" /><g
     id="g3726"
     inkscape:groupmode="layer"
     inkscape:label="funkyfreshdj"
     transform="matrix(1.3333333,0,0,-1.3333333,0,1122.5197)"><g
       id="g3728"><path
         d="M 234.5499,257.7166 H 372.0478 V 230.5457 H 234.5499 Z m 6.3357,-22.6632 h 5.4335 c 3.003,0 4.6695,2.2351 4.6695,6.2535 v 5.989 c 0,3.9535 -1.6665,6.1407 -4.6695,6.1407 h -5.4335 z m 3.3852,2.6818 v 13.0195 h 1.3235 c 1.2716,0 2.0094,-1.1415 2.0094,-3.1767 v -6.5617 c 0,-2.1135 -0.7639,-3.2811 -2.1395,-3.2811 z m 17.2729,-2.6818 h 9.157 v 2.8383 h -5.7719 v 5.6503 h 5.199 v 2.7862 h -5.199 v 4.3225 h 5.5157 v 2.7859 h -8.9008 z m 19.0437,0 h 9.157 v 2.8383 h -5.7719 v 5.6503 h 5.1991 v 2.7862 h -5.1991 v 4.3225 h 5.5157 v 2.7859 h -8.9008 z m 22.1641,-0.3907 c 3.2287,0 4.6913,1.3108 4.6913,4.5613 v 14.2126 h -3.4112 v -14.4558 c 0,-0.6985 -0.1389,-1.6359 -1.2282,-1.6359 -1.0154,0 -1.1934,0.7594 -1.1934,1.5361 v 2.0095 h -3.1507 v -2.4781 c 0,-2.5778 1.5624,-3.7497 4.2922,-3.7497 z m 21.8775,0.3907 h 3.4416 l -3.4416,18.3832 h -3.8755 l -3.5671,-18.3832 h 3.3936 l 0.4686,2.9945 h 3.1595 z m -3.1507,5.8325 1.2325,7.8812 1.1066,-7.8812 z m 17.8503,-5.8325 h 3.4546 v 5.4422 l 3.6757,12.941 h -3.5717 l -1.7923,-9.2696 -1.8703,9.2696 h -3.5717 l 3.6757,-12.7111 z m 21.4308,-0.3907 c 3.9059,0 4.9516,1.5103 4.9516,5.516 0,2.135 -0.256,3.2896 -2.2394,4.6131 l -3.2808,2.2654 c -0.9939,0.6988 -1.0676,1.0415 -1.0676,2.361 0,1.5406 0.7379,1.8312 1.5103,1.8312 1.2975,0 1.5103,-0.7855 1.5103,-1.3323 v -1.8703 h 3.3849 v 1.8181 c 0,2.63 -2.0353,3.9623 -4.7432,3.9623 -3.2029,0 -4.9952,-1.4102 -4.9952,-4.765 0,-2.183 0.5468,-3.3285 2.1872,-4.4224 l 3.2028,-2.1611 c 0.9417,-0.7636 1.1458,-1.0199 1.1458,-2.4301 0,-1.7663 0,-2.782 -1.6665,-2.782 -1.4147,0 -1.6407,0.7464 -1.6407,2.1351 v 2.1353 h -3.3587 v -2.6821 c 0,-2.9597 2.0092,-4.1922 5.0992,-4.1922"
         style="fill:#231f20;fill-opacity:1;fill-rule:evenodd;stroke:none"
         id="path3730"
         inkscape:connector-curvature="0" /><path
         d="m 235.633,272.0211 c -4.8276,-0.4748 -5.4796,-11.0784 -1.7696,-10.224 12.9339,2.9784 105.7989,1.0908 136.0394,1.0658 9.9015,-0.008 2.7658,9.9698 2.0194,10.5194 -39.971,-1.2818 -98.223,2.3817 -136.2892,-1.3612"
         style="fill:#231f20;fill-opacity:1;fill-rule:evenodd;stroke:none"
         id="path3732"
         inkscape:connector-curvature="0" /><path
         d="m 211.5023,366.5044 c -0.2163,-2.5282 0.9825,-10.6291 3.4183,-10.6662 2.2413,1.0255 16.7901,8.2227 17.3432,8.227 1.8238,-8.1749 -1.5976,-7.0396 -5.637,-9.4062 l -6.3519,-2.9767 c -3.1969,-1.1976 -4.0456,-1.4644 -3.4795,-5.0054 0.6077,-3.8001 1.7008,-6.461 2.9761,-5.9267 l 14.1948,5.9468 c 0.8087,-23.4023 1.7835,-42.7011 0.3809,-65.8281 -0.2117,-3.488 -0.8212,-3.956 0.5066,-4.6973 2.0421,-1.1398 6.753,-0.9921 9.6279,1.6075 3.7179,3.3616 0.7044,64.84 0.2846,74.1606 l 6.423,5.2033 c 2.2603,-13.0264 1.9409,-57.2103 -0.2682,-76.8082 -0.5998,-5.3214 10.6081,-0.7494 10.8567,2.8951 1.1251,16.4741 3.6644,32.7554 7.397,48.7839 2.2298,-3.3332 8.7409,-27.661 11.6983,-38.1007 0.8635,-3.0484 1.3584,-3.7789 4.0587,-2.8267 -0.0119,-2.943 -1.1464,-7.3199 -1.0123,-9.8669 0.1157,-2.1897 1.0897,-2.9806 5.4397,-0.8878 1.444,0.6945 2.2502,0.1191 3.2148,-0.4507 1.8465,-1.0902 2.2368,0.195 3.9571,1.6719 4.764,4.0904 13.9431,11.9449 14.023,11.9656 3.2219,-4.8594 7.6043,-11.7836 16.5736,-11.9203 7.1938,-0.1097 15.3043,8.3013 19.8956,13.4289 -1.7269,-4.9496 -1.6356,-5.3943 -5.042,-9.339 -0.4947,-3.9408 -1.0097,-8.6004 1.1492,-8.6939 2.8658,-0.1242 8.9464,1.4851 8.8066,5.1452 -0.4824,12.6394 1.5435,33.0925 3.1213,46.3192 l 8.3789,1.1044 c -2.4599,-1.3898 -3.7052,-2.5773 -3.7477,-3.5643 0.0133,-18.4572 0.6789,-28.2359 2.0035,-45.6525 0.3524,-4.633 11.7323,-4.1502 10.8426,0.6548 -6.9704,37.6401 -3.3877,56.5911 -0.6078,90.7988 0.307,3.7771 0.0652,6.133 -0.2098,6.294 -1.4711,0.8612 -9.7982,-1.3101 -10.0658,-5.1057 l -2.4083,-34.1646 -3.8449,-1.0471 c 0.0261,6.3564 1.3008,13.6448 1.0995,16.9563 -0.1783,2.9369 0.2557,3.1782 0.2645,5.3002 0.0899,21.7528 3.1723,24.7331 -8.6258,19.7702 -3.2032,-1.3473 -1.9236,-2.512 -1.9386,-6.1523 -0.6551,3.3571 -3.3279,11.0188 -8.9552,11.1044 -6.8066,0.1038 -11.672,-3.0996 -15.3321,-6.4136 -0.8838,-0.8005 -2.7708,-6.0849 -3.1493,-7.7338 -6.4116,-27.9431 12.0827,-41.9519 15.3383,-70.7604 0.6783,-6.0024 0.4017,-11.2856 -2.4435,-11.2422 -22.7315,0.3886 -18.6633,57.1771 -15.4363,71.049 0.9184,4.3795 -1.2736,2.8094 -2.8967,2.4726 -1.3986,4.9516 -2.2723,4.9088 -6.8156,2.7698 l -9.0927,-3.6187 -0.7257,11.3584 c 2.573,1.2197 19.6398,2.215 19.7473,4.5581 0.0201,4.9652 -1.552,7.8545 -2.7315,8.2732 -6.8151,0.0873 -17.8087,-2.0957 -25.1949,-3.2162 -3.5773,-0.5428 -0.7118,-1.6313 -3.0869,-2.3706 -1.8253,-0.5681 -1.1673,-1.0057 -0.6625,-2.8897 3.0617,-11.4239 3.814,-60.5525 1.645,-63.9912 -1.3031,5.8396 -3.132,11.5336 -4.9533,17.5833 -0.4785,1.5897 -1.29,4.1729 -1.8632,5.5309 l -1.4205,5.6345 c -0.2766,1.0967 7.3268,4.9473 7.3764,14.7824 -1.4168,9.9572 -8.9518,16.6578 -12.0274,21.7655 -4.3974,-0.307 -6.4304,-3.4404 -9.0221,-5.1698 1.0329,-4.6304 -1.5928,-30.6108 -2.9024,-32.5058 0.8472,4.9777 -0.3212,30.9311 -1.7893,30.8044 -4.894,-0.4221 -16.4687,-8.7542 -16.4565,-5.76 0.0153,3.6992 0.758,3.6034 4.7775,4.9723 5.3331,1.8156 11.1229,3.6612 16.6751,4.9144 2.3411,0.5287 6.7357,10.4672 0.9088,9.699 -24.3366,-3.3517 -51.6677,-17.2987 -54.2072,-18.7466 z m 119.4797,10.9165 c 7.835,-1.9871 5.3703,-25.9818 4.4048,-35.6893 -0.1625,-1.6339 -0.8521,-3.3747 1.4403,-2.8968 l 6.8113,1.2501 c 1.1115,1.1163 1.0179,2.7641 1.4032,4.5714 0.7662,-9.9221 -1.4848,-24.4252 -1.5208,-33.2345 -4.2877,23.7875 -22.3433,38.7797 -12.5388,65.9991 z m -24.5446,-73.1455 c 0.1888,-1.1285 -9.3104,-9.0062 -10.7572,-9.1071 1.4295,5.1703 1.2175,54.4813 2.3099,54.8484 l 3.9456,1.326 1.8351,3.7698 2.6561,2.1841 -1.0885,-3.0002 -0.43,-1.9548 0.007,0.002 c -1.2847,-9.0578 -2.0486,-20.4659 -1.5976,-28.6257 0.6596,-11.9389 3.0571,-19.0746 3.1195,-19.4428 z m -36.3572,36.1845 c 0.0156,3.8146 2.9792,17.4977 3.0181,19.7989 4.9626,-4.8121 2.1075,-16.1807 -3.0181,-19.7989"
         style="fill:#231f20;fill-opacity:1;fill-rule:evenodd;stroke:none"
         id="path3734"
         inkscape:connector-curvature="0" /><path
         d="m 369.1358,488.4591 c -0.0187,3.7584 -12.8727,-1.3876 -12.8475,-3.4572 0.9094,-9.2449 1.5662,-52.6515 -4.1887,-61.7383 0.4932,15.3012 0.1649,51.8077 -4.7787,60.1985 -0.8955,1.5197 -1.8876,2.1147 -3.7502,1.3751 -1.6073,-0.6381 -7.2584,-3.511 -7.2408,-4.968 2.4984,-6.2121 2.9537,-36.1496 -1.6424,-54.6009 -1.7878,9.682 -1.709,25.535 -0.1715,36.2829 -0.2223,1.599 -1.4006,2.4242 -2.7391,2.0287 -1.0959,-0.002 -6.6045,-3.0798 -8.0944,-4.0884 5.2628,5.0984 11.3241,17.5816 11.2368,24.7833 -0.006,0.459 -0.369,0.1877 -0.6953,1.355 -3.6893,-0.008 -10.2107,-1.3385 -10.5826,-5.118 -0.525,-5.3393 -3.0413,-13.6281 -6.4678,-15.948 -0.059,4.86 -1.0942,25.0266 -8.1913,19.7825 -1.3544,-1.0009 -5.5885,-2.7513 -5.5666,-4.5525 2.7564,-8.0654 4.5479,-23.597 5.443,-38.6626 0.7977,-13.4288 0.4933,-25.1957 -0.5745,-34.9903 -0.324,-2.9704 -0.6072,-2.9636 2.1447,-2.7788 2.7342,0.3717 6.0953,-0.1428 6.69,2.3403 2.3454,9.7886 1.7972,40.5862 1.5724,45.6384 l 5.7135,2.6433 c -1.4122,-10.2815 0.0867,-42.5727 -0.1746,-45.6557 -0.5137,-6.0593 5.1477,-5.7662 6.3028,-5.1786 4.5091,2.295 4.2313,1.4553 5.7175,4.7549 1.7637,3.9157 8.3579,27.8781 8.3857,30.6079 1.8845,0.004 -3.5169,-29.1183 -4.5275,-32.3986 0.7674,-2.7453 5.3396,-5.1126 8.1389,-4.1788 3.8755,1.2926 11.5364,18.4025 11.5081,21.0112 l -0.0434,-24.4185 c 0.021,-1.7246 0.1295,-2.8187 -1.2388,-2.7156 -45.6222,3.4345 -56.0667,7.6218 -104.6919,1.1776 -12.5705,-1.666 -23.5987,-4.3334 -29.0852,-8.6057 0.0224,-1.8386 -1.1285,-10.855 1.2345,-10.8496 13.5527,9.0133 48.9762,12.7371 78.8026,12.7391 17.5844,10e-4 32.7271,-1.5242 49.7871,-4.9739 4.4255,-0.8946 8.5224,-1.6866 10.1231,-1.6829 1.2515,0.003 9.847,2.2875 8.5941,5.0074 -6.6711,14.4847 -2.5257,78.2206 -4.102,99.8348"
         style="fill:#231f20;fill-opacity:1;fill-rule:evenodd;stroke:none"
         id="path3736"
         inkscape:connector-curvature="0" /><path
         d="m 375.7513,510.9593 c -38.7394,-13.1723 -121.6933,-22.257 -151.1527,9.4737 -2.6016,2.8021 -9.4306,-10.1917 -9.4294,-10.2977 2.4531,-6.4151 3.5166,-10.8757 9.5462,-32.3867 -6.1027,-1.4388 -10.6509,-2.8139 -17.3489,-2.9148 -3.4231,-0.0513 -3.6425,1.6426 -6.6631,-1.9097 -4.4357,-5.2164 -5.0502,-7.0756 -2.3309,-7.5079 6.6243,-1.0528 21.6771,1.6064 27.7908,4.8748 2.2267,-17.2409 5.8173,-47.6524 1.7615,-75.286 0.0298,-2.4655 10.4136,1.2637 11.4426,1.7947 8.9881,4.6394 2.6524,58.7137 0.0961,74.9698 -0.3042,2.8556 -5.1415,1.3246 -6.8771,0.9295 2.7822,1.5123 6.9457,3.6142 9.7738,5.0899 7.3154,-29.8143 6.9279,-60.6073 4.6744,-77.6532 0.0396,-3.2663 9.5252,1.3046 10.3923,1.9083 8.9612,6.2419 10.4448,14.8391 11.6822,24.5954 1.4887,-8.3798 -0.2906,-18.7123 0.1023,-22.9014 0.3413,-3.6414 9.3433,2.6592 9.6809,3.2105 4.9921,12.6474 -7.9674,69.577 -11.1671,76.3061 -1.9661,5.7218 -10.2821,-2.404 -11.1464,-2.7198 0.1015,-1.0616 0.9488,-2.446 1.2512,-3.8812 3.0546,-14.5069 10.768,-54.4201 0.5854,-63.6043 -0.199,16.3984 -0.5114,62.6794 -7.5773,74.6444 -2.0619,3.4914 -5.6223,-1.0522 -13.2718,-3.1249 l -2.4441,13.2026 c 2.1952,-1.4584 17.9723,-8.1924 52.744,-10.216 34.1495,-1.9877 85.8558,3.3565 94.413,11.3303 2.6637,4.3679 0.2242,14.3694 -6.5279,12.0736"
         style="fill:#231f20;fill-opacity:1;fill-rule:evenodd;stroke:none"
         id="path3738"
         inkscape:connector-curvature="0" /><path
         d="m 307.565,581.3303 c -0.182,6.23 1.3312,10.8493 -2.1209,15.209 -4.3529,0.752 -9.5405,-0.4499 -11.8341,-1.7272 0.7869,-13.8421 -4.2567,-50.3628 -6.9545,-61.8636 -4.6729,1.1478 -17.9076,19.0919 -20.1974,25.6777 -2.2192,4.4189 -10.2563,22.9549 -16.1478,21.0994 -1.6478,-0.519 -7.0512,-4.0317 -7.0067,-5.5633 0.2718,-9.3146 9.239,-18.2013 14.8065,-25.3463 4.3081,-5.3433 9.4039,-28.8745 10.4011,-35.5853 0.2951,-1.9859 -0.3109,-4.1507 1.4434,-4.3064 1.9928,-0.1766 8.4144,3.4096 8.3725,4.8476 -0.0499,1.7118 -1.6804,6.8493 -2.4013,8.6819 -0.4308,1.0953 -0.7171,1.8885 -0.3095,2.8009 3.4432,-0.3089 13.5794,-16.4154 14.8768,-14.354 4.5717,7.2632 7.8687,18.0555 10.5661,26.3806 1.2019,-0.8393 5.9423,-22.0487 11.5869,-24.8814 4.3889,2.444 8.7406,6.6776 12.6224,9.4042 0.6781,-6.0213 -0.1071,-8.1433 1.0837,-13.8656 -1.6795,-0.8938 8.6014,-0.7631 11.8429,1.2234 -1.8281,35.4929 5.9354,34.5821 15.3575,62.1076 1.5644,4.5709 -1.6614,10.3062 -5.3337,13.0635 -2.9659,0.9604 -7.66,-5.6273 -11.3207,-12.9756 -7.3179,-14.6908 -11.3831,-29.7054 -19.0301,-40.197 -2.7655,5.5355 -9.6786,28.7711 -10.3031,50.1699"
         style="fill:#231f20;fill-opacity:1;fill-rule:evenodd;stroke:none"
         id="path3740"
         inkscape:connector-curvature="0" /><path
         d="m 305.5388,407.0415 c 1.6781,12.8316 -0.777,79.4157 -8.6148,77.9049 -1.4955,-0.129 -8.0611,-4.6324 -8.0152,-6.2017 0.0652,-2.209 -1.429,-7.573 -3.1326,-8.8821 -0.254,2.251 -2.6838,16.2321 -4.8883,16.189 -7.2624,-0.1074 -8.1284,-3.7301 -9.0289,-4.587 0.0294,-1.0018 2.7102,-9.0386 3.4219,-12.4858 4.0048,-19.3935 6.8432,-33.5183 7.5564,-53.9881 0.1111,-3.2012 -1.1277,-11.0735 -0.6469,-12.8965 2.5104,0.2585 9.0363,2.5501 9.6863,5.0647 0.1734,0.6712 0.1916,1.6976 0.2741,3.5787 0.6517,14.8473 -1.2631,35.2313 -4.0978,49.9932 -0.3611,1.8814 -0.8138,2.6323 -0.2492,2.9231 0.8981,0.4624 2.6896,2.2969 4.1281,4.6327 3.5314,-14.1429 4.4119,-43.4512 3.7472,-65.2144 4.2613,-0.2705 9.7877,-0.8439 9.8597,3.9693"
         style="fill:#231f20;fill-opacity:1;fill-rule:evenodd;stroke:none"
         id="path3742"
         inkscape:connector-curvature="0" /><path
         d="m 373.2143,488.3474 c 0.809,-8.6154 -0.1001,-30.1088 -0.6132,-37.4488 l 1.7453,0.0606 c 3.8259,0.9023 5.5188,0.9791 6.6158,2.3763 2.2232,2.8316 5.2362,27.6429 5.1639,33.5999 -0.0814,6.713 -8.8591,2.3675 -12.9118,1.412"
         style="fill:#231f20;fill-opacity:1;fill-rule:evenodd;stroke:none"
         id="path3744"
         inkscape:connector-curvature="0" /><path
         d="m 293.6169,599.1151 c 5.4113,0.8615 9.4583,1.2881 14.4946,1.2073 3.3429,-0.0539 1.8434,3.918 0.9451,6.2853 -0.9488,2.5001 -1.4465,3.4171 -3.3523,3.9103 -3.1708,0.8207 -19.1993,2.2936 -18.0249,-3.06 0.3308,-1.5077 0.6721,-3.4333 1.0417,-4.4163 2.4409,-6.4897 2.8503,-4.2523 4.8958,-3.9266"
         style="fill:#231f20;fill-opacity:1;fill-rule:evenodd;stroke:none"
         id="path3746"
         inkscape:connector-curvature="0" /><path
         d="m 359.1391,577.8502 c 0.4828,2.0398 2.5608,0.6089 2.4268,5.2024 -0.0681,2.327 -3.0581,7.3284 -4.023,9.3481 -1.6404,3.4333 -3.615,6.8326 -6.7881,2.8709 -5.669,-7.0781 -2.6779,-6.3039 -1.4363,-7.3525 2.5529,-2.1563 6.9401,-10.0601 9.8206,-10.0689"
         style="fill:#231f20;fill-opacity:1;fill-rule:evenodd;stroke:none"
         id="path3748"
         inkscape:connector-curvature="0" /><path
         d="m 390.4784,455.1542 c 3.1099,1.5925 8.6811,17.8368 7.9991,20.6175 -3.9943,0.9185 -7.3565,-0.9788 -10.4987,-1.7194 0.0527,-4.3368 -4.4045,-20.3466 -3.7596,-19.838 2.0344,-0.7535 4.597,0.089 6.2592,0.9399"
         style="fill:#231f20;fill-opacity:1;fill-rule:evenodd;stroke:none"
         id="path3750"
         inkscape:connector-curvature="0" /><path
         d="m 240.4837,577.7969 c 2.6821,0.0519 3.6125,2.6765 9.5389,4.1629 6.2053,1.5565 -2.3987,10.3082 -3.7959,10.2813 -3.7338,-0.072 -10.2201,-1.802 -10.3119,-4.7163 -0.0473,-1.4958 2.9356,-9.7594 4.5689,-9.7279"
         style="fill:#231f20;fill-opacity:1;fill-rule:evenodd;stroke:none"
         id="path3752"
         inkscape:connector-curvature="0" /><path
         d="m 229.7497,313.0773 c -0.612,-8.7727 0.8473,-30.7242 1.5526,-38.225 l -1.7825,0.1007 c -3.9259,1.0057 -5.6554,1.1219 -6.8091,2.5719 -2.3385,2.9386 -6.027,28.3223 -6.1004,34.3989 -0.0831,6.848 8.9807,2.2187 13.1394,1.1535"
         style="fill:#231f20;fill-opacity:1;fill-rule:evenodd;stroke:none"
         id="path3754"
         inkscape:connector-curvature="0" /><path
         d="m 212.9559,279.5924 c -2.554,1.3471 -6.9242,12.1754 -8.2939,17.9776 -1.6073,6.8083 6.0466,2.3588 10.3762,1.2496 0.0539,-4.4238 4.9981,-20.8588 4.3274,-20.3256 -2.0574,-0.7234 -4.6931,0.1933 -6.4097,1.0984"
         style="fill:#231f20;fill-opacity:1;fill-rule:evenodd;stroke:none"
         id="path3756"
         inkscape:connector-curvature="0" /></g></g></svg>