<?xml version="1.0" ?><svg viewBox="0 0 24 24" xmlns="http://www.w3.org/2000/svg"><title/><g id="Mixcloud"><g data-name="&lt;Group&gt;" id="_Group_"><g data-name="&lt;Group&gt;" id="_Group_2"><path d="M14.5,10.5a5,5,0,0,0-9.91-.94A3.5,3.5,0,0,0,4,9.5a3.5,3.5,0,0,0,0,7H14.5a3,3,0,0,0,0-6Z" data-name="&lt;Path&gt;" id="_Path_" style="fill:none;stroke:#303c42;stroke-linecap:round;stroke-linejoin:round"/><path d="M1.53,10.53a3.5,3.5,0,0,1,4.95,0" data-name="&lt;Path&gt;" id="_Path_2" style="fill:none;stroke:#303c42;stroke-linecap:round;stroke-linejoin:round"/><path d="M11.36,5.86a5,5,0,0,1,2.79,6.5" data-name="&lt;Path&gt;" id="_Path_3" style="fill:none;stroke:#303c42;stroke-linecap:round;stroke-linejoin:round"/></g><path d="M19.61,16.65a5.94,5.94,0,0,0,0-6.3" data-name="&lt;Path&gt;" id="_Path_4" style="fill:none;stroke:#303c42;stroke-linecap:round;stroke-linejoin:round"/><path d="M22,18.5a9.08,9.08,0,0,0,0-10" data-name="&lt;Path&gt;" id="_Path_5" style="fill:none;stroke:#303c42;stroke-linecap:round;stroke-linejoin:round"/></g></g></svg>