<?xml version="1.0" encoding="UTF-8"?>
<!-- Generator: Adobe Illustrator 21.0.2, SVG Export Plug-In . SVG Version: 6.00 Build 0)  -->
<svg version="1.1" id="Laag_1" xmlns="http://www.w3.org/2000/svg" xmlns:xlink="http://www.w3.org/1999/xlink" x="0px" y="0px" viewBox="0 0 50 50" style="enable-background:new 0 0 50 50;" xml:space="preserve">
<style type="text/css">
	.st0{fill:#FFFFFF;}
</style>
<rect width="50" height="50"/>
<g>
	<g>
		<path class="st0" d="M42,37.1c-0.3,0-0.5-0.1-0.8-0.2c-0.6-0.4-0.8-1.3-0.4-1.9c1.3-1.9,1.9-4.1,1.9-6.4c0-2.3-0.7-4.5-1.9-6.4    c-0.4-0.6-0.3-1.5,0.4-1.9c0.6-0.4,1.5-0.3,1.9,0.4c1.6,2.3,2.4,5.1,2.4,7.9c0,2.8-0.8,5.6-2.4,7.9C42.9,36.9,42.5,37.1,42,37.1    L42,37.1z"/>
	</g>
	<g>
		<path class="st0" d="M38.1,34.9c-0.3,0-0.5-0.1-0.8-0.2c-0.6-0.4-0.8-1.3-0.4-1.9c0.8-1.2,1.3-2.7,1.3-4.2c0-1.5-0.4-2.9-1.3-4.2    c-0.4-0.6-0.3-1.5,0.4-1.9c0.6-0.4,1.5-0.3,1.9,0.4c1.1,1.7,1.7,3.7,1.7,5.7c0,2-0.6,4-1.7,5.7C39,34.7,38.6,34.9,38.1,34.9    L38.1,34.9z"/>
	</g>
	<path class="st0" d="M31.7,22.7c-0.5-5.5-5.2-9.8-10.8-9.8c-4.7,0-8.8,3-10.3,7.4c-3.5,0.5-6.2,3.5-6.2,7.2c0,4,3.3,7.3,7.3,7.3   h18.7c3.4,0,6.1-2.7,6.1-6.1C36.5,25.7,34.5,23.3,31.7,22.7z M30.4,32H11.7c-2.5,0-4.6-2-4.6-4.6c0-2.5,2-4.6,4.6-4.6   c1.2,0,2.4,0.5,3.2,1.3c0.5,0.5,1.4,0.5,1.9,0c0.5-0.5,0.5-1.4,0-1.9c-0.9-0.9-2.1-1.6-3.4-1.9c1.3-2.9,4.2-4.8,7.4-4.8   c4.5,0,8.1,3.6,8.1,8.1c0,0.9-0.1,1.7-0.4,2.5c-0.2,0.7,0.2,1.5,0.9,1.7c0.1,0,0.3,0.1,0.4,0.1c0.6,0,1.1-0.4,1.3-0.9   c0.2-0.5,0.3-1.1,0.4-1.6c1.3,0.5,2.2,1.7,2.2,3.1C33.8,30.5,32.3,32,30.4,32z"/>
</g>
</svg>