<?xml version="1.0" encoding="windows-1252"?>
<!-- Generator: Adobe Illustrator 18.1.1, SVG Export Plug-In . SVG Version: 6.00 Build 0)  -->
<svg version="1.1" id="Capa_1" xmlns="http://www.w3.org/2000/svg" xmlns:xlink="http://www.w3.org/1999/xlink" x="0px" y="0px" viewBox="0 0 100 100" style="enable-background:new 0 0 100 100;" xml:space="preserve">
<g>
	<path style="fill:#030104;" d="M3.361,67.281L5,60.279l-1.639-7.238c-0.045-0.215-0.457-0.379-0.959-0.379   c-0.508,0-0.92,0.164-0.959,0.381L0,60.279l1.443,7.002c0.039,0.217,0.451,0.381,0.959,0.381   C2.904,67.662,3.316,67.498,3.361,67.281z M13.611,71.168L15,60.348l-1.389-16.74c-0.041-0.426-0.561-0.76-1.191-0.76   c-0.635,0-1.156,0.334-1.188,0.76L10,60.348l1.232,10.82c0.031,0.422,0.553,0.756,1.188,0.756   C13.051,71.924,13.57,71.594,13.611,71.168z M23.84,70.99L25,60.354l-1.16-22.287c-0.031-0.523-0.648-0.934-1.404-0.934   c-0.762,0-1.379,0.41-1.406,0.934L20,60.354l1.029,10.642c0.027,0.519,0.645,0.928,1.406,0.928   C23.191,71.922,23.809,71.514,23.84,70.99z M34.049,70.832L35,60.355l-0.951-22.449c-0.023-0.621-0.727-1.107-1.6-1.107   c-0.879,0-1.582,0.486-1.604,1.107L30,60.355l0.85,10.475c0.018,0.615,0.721,1.102,1.6,1.102   C33.322,71.932,34.025,71.453,34.049,70.832z M44.248,70.699L45,60.359l-0.752-25.74c-0.016-0.707-0.818-1.281-1.787-1.281   c-0.971,0-1.771,0.576-1.787,1.281L40,60.352c0,0.017,0.674,10.349,0.674,10.349c0.016,0.698,0.816,1.272,1.787,1.272   C43.43,71.973,44.232,71.406,44.248,70.699z M51.391,71.98C51.424,71.982,86.883,72,87.114,72C94.232,72,100,66.42,100,59.537   c0-6.885-5.768-12.465-12.887-12.465c-1.766,0-3.449,0.348-4.984,0.969C81.104,36.811,71.363,28,59.484,28   c-2.906,0-5.742,0.553-8.244,1.488c-0.972,0.366-1.232,0.739-1.24,1.467v39.553C50.01,71.27,50.621,71.906,51.391,71.98z"/>
</g>
<g>
</g>
<g>
</g>
<g>
</g>
<g>
</g>
<g>
</g>
<g>
</g>
<g>
</g>
<g>
</g>
<g>
</g>
<g>
</g>
<g>
</g>
<g>
</g>
<g>
</g>
<g>
</g>
<g>
</g>
</svg>